<svg width="24" height="25" viewBox="0 0 24 25" fill="none" xmlns="http://www.w3.org/2000/svg">
<g clip-path="url(#clip0_119_11059)">
<path d="M11.995 2.5C6.47 2.5 2 6.975 2 12.5C2 18.025 6.47 22.5 11.995 22.5C17.52 22.5 22 18.025 22 12.5C22 6.975 17.52 2.5 11.995 2.5ZM18.92 8.5H15.97C15.645 7.25 15.19 6.05 14.59 4.94C16.43 5.57 17.96 6.845 18.92 8.5ZM12 4.535C12.835 5.735 13.485 7.07 13.91 8.5H10.09C10.515 7.07 11.165 5.735 12 4.535ZM4.26 14.5C4.095 13.86 4 13.19 4 12.5C4 11.81 4.095 11.14 4.26 10.5H7.635C7.555 11.155 7.5 11.82 7.5 12.5C7.5 13.18 7.555 13.845 7.64 14.5H4.26ZM5.075 16.5H8.025C8.35 17.75 8.805 18.95 9.405 20.065C7.565 19.435 6.035 18.155 5.075 16.5ZM8.025 8.5H5.075C6.035 6.845 7.565 5.565 9.405 4.935C8.805 6.05 8.35 7.25 8.025 8.5ZM12 20.465C11.17 19.265 10.52 17.93 10.09 16.5H13.91C13.48 17.93 12.83 19.265 12 20.465ZM14.34 14.5H9.66C9.565 13.845 9.5 13.18 9.5 12.5C9.5 11.82 9.565 11.155 9.66 10.5H14.34C14.435 11.155 14.5 11.82 14.5 12.5C14.5 13.18 14.435 13.845 14.34 14.5ZM14.595 20.06C15.195 18.945 15.65 17.75 15.975 16.5H18.925C17.96 18.155 16.43 19.43 14.595 20.06ZM16.36 14.5C16.44 13.845 16.5 13.18 16.5 12.5C16.5 11.82 16.445 11.155 16.36 10.5H19.735C19.9 11.14 20 11.81 20 12.5C20 13.19 19.905 13.86 19.735 14.5H16.36Z" fill="#182325"/>
</g>
<defs>
<clipPath id="clip0_119_11059">
<rect width="24" height="24" fill="white" transform="translate(0 0.5)"/>
</clipPath>
</defs>
</svg>
